# xmcd
#
# Track frame offsets:
#	150
#	12721
#	23683
#	34506
#	44734
#	57132
#	68527
#	80679
#	90503
#	102319
#	114856
#	126312
#	136161
#	147164
#	158822
#	170603
#	182455
#	196276
#	205173
#	217050
#	226909
#	236566
#	247558
#	258626
#	270031
#	280535
#	292861
#	305201
#	316594
#	327938
#	338877
#	349379
#
# Disc length: 4790 seconds
#
# Revision: 0
# Processed by: cddbd v1.5.1PL2 Copyright (c) Steve Scherf et al.
# Submitted via: EasyCDDAExtractor 4.6.9.1
#
DISCID=c012b420
DTITLE=Connie Smith - Born To Sing - Disc 1
DYEAR=2001
DGENRE=Country
TTITLE0=I'm Ashamed Of You
TTITLE1=The Threshold
TTITLE2=Once A Day
TTITLE3=Darling, Are You Ever Coming Home
TTITLE4=I Don't Love You Anymore
TTITLE5=The Hinges On The Door
TTITLE6=Tell Another Lie
TTITLE7=Don't Forget (I Still Love You)
TTITLE8=Tiny Blue Transistor Radio
TTITLE9=The Other Side Of You
TTITLE10=Then And Only Then
TTITLE11=It's Just My Luck
TTITLE12=Senses
TTITLE13=I Can't Remember
TTITLE14=Will The Real Me Please Stop Crying
TTITLE15=Even Tho
TTITLE16=Love Is No Excuse
TTITLE17=Not 'Till You Come Back to Me
TTITLE18=Two Empty Arms
TTITLE19=I Can Stand It (As Long as You Can)
TTITLE20=I'll Be There (If You Ever Want Me)
TTITLE21=I Thought of You
TTITLE22=I Can Turn Your World Around
TTITLE23=More To Love Than This
TTITLE24=House Divided
TTITLE25=Holdin' On (alt ver)
TTITLE26=If You Won't Tell
TTITLE27=If I Talk to Him
TTITLE28=I Don't Have Anyplace To Go
TTITLE29=Everybody's Gotta Be Somewhere
TTITLE30=Same As Mine
TTITLE31=Holdin' On
EXTD=
EXTT0=
EXTT1=
EXTT2=
EXTT3=
EXTT4=
EXTT5=
EXTT6=
EXTT7=
EXTT8=
EXTT9=
EXTT10=
EXTT11=
EXTT12=
EXTT13=
EXTT14=
EXTT15=
EXTT16=
EXTT17=
EXTT18=
EXTT19=
EXTT20=
EXTT21=
EXTT22=
EXTT23=
EXTT24=
EXTT25=
EXTT26=
EXTT27=
EXTT28=
EXTT29=
EXTT30=
EXTT31=
PLAYORDER=
